<svg id="Lorem" viewBox="0 0 6.3499999 6.3500002" height="24" width="24">
    <g>
        <path
            d="m 1.5990907,5.6507729 v -0.113642 h -0.123064 -0.123063 l 0.0051,-0.149995 0.0051,-0.149995 0.09616,-0.03365 c 0.196044,-0.06861 0.239255,-0.135442 0.264624,-0.409251 0.02018,-0.217833 0.01277,-3.587692 -0.008,-3.630068 -0.0076,-0.0156 -0.039,-0.03552 -0.0697,-0.04427 -0.04997,-0.01425 -0.05672,-0.02409 -0.06455,-0.09403 -0.0087,-0.07767 -0.0093,-0.07832 -0.113641,-0.11519302 l -0.1049,-0.03708 -0.0051,-0.150865 -0.0051,-0.150864 h 0.971006 0.971005 v 0.121585 0.121584 l 0.118012,0.0052 0.118013,0.0052 v 0.137426 0.13742502 l -0.100778,0.0376 c -0.05543,0.02068 -0.127933,0.05927 -0.161123,0.08575 -0.118019,0.09417 -0.113991,0.02247 -0.113991,2.029068 v 1.800274 l 0.292846,-0.01 c 0.35134,-0.01195 0.448005,-0.03965 0.572393,-0.164039 0.126234,-0.126234 0.200219,-0.306598 0.323458,-0.788545 l 0.019,-0.0743 h 0.268862 c 0.199307,0 0.270861,0.0057 0.276595,0.02185 0.0043,0.01202 0.0038,0.06709 -9.74e-4,0.122383 l -0.0087,0.100529 h 0.115038 c 0.06327,0 0.119286,0.0069 0.124479,0.01528 0.0097,0.01573 -0.05632,1.378572 -0.07021,1.448951 l -0.0078,0.03934 h -1.730515 -1.730516 z m 3.171546,-0.275363 c 0.01199,-0.11488 0.06309,-1.093986 0.06296,-1.206349 l -8.2e-5,-0.08305 h -0.206442 -0.206443 l -0.06436,0.238174 c -0.140631,0.520404 -0.317935,0.733171 -0.646541,0.77586 -0.06945,0.009 -0.284622,0.01665 -0.478166,0.01694 -0.279902,4.13e-4 -0.35603,-0.0044 -0.372102,-0.02381 -0.01509,-0.01818 -0.01888,-0.515289 -0.01499,-1.962504 0.0048,-1.778306 0.0077,-1.945463 0.03528,-2.026761 0.03801,-0.11204902 0.132133,-0.20715802 0.247465,-0.25007002 l 0.08909,-0.03315 0.0053,-0.08945 0.0053,-0.08945 h -0.901321 -0.901305 v 0.08905 c 0,0.07727 0.0051,0.0904 0.03878,0.0992 0.02133,0.0056 0.07825,0.03076 0.126484,0.05596 0.132514,0.06923 0.181936,0.16103102 0.203686,0.37835502 0.01059,0.105828 0.0151,0.84795 0.01162,1.912521 -0.0052,1.605872 -0.0081,1.746656 -0.0365,1.831512 -0.03881,0.115773 -0.122904,0.200852 -0.242529,0.245366 l -0.09281,0.03453 -0.0053,0.08945 -0.0053,0.08945 h 1.669314 1.669314 z"
            style="stroke-width:0.0991181;stroke-miterlimit:4;stroke-dasharray:none;stroke-opacity:1"
            fill="current"
            stroke="current"
        />
    </g>
</svg>
