<svg id="wordImgIcon" xmlns="http://www.w3.org/2000/svg" width="24" height="24" viewBox="0 0 24 24">
  <path id="path2" d="M0,0H24V24H0Z" fill="none"/>
  <path fill="#fff" id="path4" d="M18,13v7H4V6H9.02A6.3,6.3,0,0,1,9.5,4H4A2.006,2.006,0,0,0,2,6V20a2.006,2.006,0,0,0,2,2H18a2.006,2.006,0,0,0,2-2V15Zm-1.5,5H5.5l2.75-3.53,1.96,2.36,2.75-3.54Z"/>
  <g id="text839" transform="translate(-3.786 -0.1)">
    <path fill="#fff" id="path841" d="M17.748,11.64,15.336,4.562h-.893V3.134h3.809V4.562h-.875L18.751,8.62l1.288-4.058h-.765V3.134h3.038V4.562h-.784L22.912,8.62l1.33-4.058H23.4V3.134h3.384V4.562h-.917L23.532,11.64h-1.58l-1.33-3.858L19.364,11.64Z"/>
  </g>
</svg>
