<svg
   viewBox="0 0 24 24"
   width="24"
   height="24"
   version="1.1">
  <g
     transform="matrix(0.83983606,0,0,0.83983606,0.24229516,0.24229516)"
     id="g837">
    <path
       fill="none"
       d="M 2,2 H 26 V 26 H 2 Z"
       id="path2" />
    <path
       d="m 20,15 v 7 H 6 V 8 h 5.02 A 6.3,6.3 0 0 1 11.5,6 H 6 A 2.006,2.006 0 0 0 4,8 v 14 a 2.006,2.006 0 0 0 2,2 h 14 a 2.006,2.006 0 0 0 2,-2 v -5 z m -1.5,5 h -11 l 2.75,-3.53 1.96,2.36 2.75,-3.54 z"
       id="path4"
       style="fill:#999999;fill-opacity:1" />
    <g
       transform="translate(-1.786,1.9)"
       id="text839"
       style="fill:#999999;fill-opacity:1">
      <path
         d="M 17.748,11.64 15.336,4.562 H 14.443 V 3.134 h 3.809 V 4.562 H 17.377 L 18.751,8.62 20.039,4.562 H 19.274 V 3.134 h 3.038 v 1.428 h -0.784 l 1.384,4.058 1.33,-4.058 H 23.4 V 3.134 h 3.384 v 1.428 h -0.917 l -2.335,7.078 h -1.58 l -1.33,-3.858 -1.258,3.858 z"
         id="path841"
         style="fill:#999999;fill-opacity:1" />
    </g>
  </g>
</svg>
