<?xml version="1.0" encoding="UTF-8" standalone="no"?>
<svg
   xmlns:dc="http://purl.org/dc/elements/1.1/"
   xmlns:cc="http://creativecommons.org/ns#"
   xmlns:rdf="http://www.w3.org/1999/02/22-rdf-syntax-ns#"
   xmlns:svg="http://www.w3.org/2000/svg"
   xmlns="http://www.w3.org/2000/svg"
   xmlns:sodipodi="http://sodipodi.sourceforge.net/DTD/sodipodi-0.dtd"
   xmlns:inkscape="http://www.inkscape.org/namespaces/inkscape"
   inkscape:version="1.0 (4035a4fb49, 2020-05-01)"
   sodipodi:docname="title-light.svg"
   id="svg9"
   version="1.1"
   viewBox="0 0 884.78421 126.15434"
   height="126.15437"
   width="884.78424">
  <metadata
     id="metadata15">
    <rdf:RDF>
      <cc:Work
         rdf:about="">
        <dc:format>image/svg+xml</dc:format>
        <dc:type
           rdf:resource="http://purl.org/dc/dcmitype/StillImage" />
        <dc:title></dc:title>
      </cc:Work>
    </rdf:RDF>
  </metadata>
  <defs
     id="defs13" />
  <sodipodi:namedview
     inkscape:pagecheckerboard="false"
     inkscape:current-layer="svg9"
     inkscape:window-maximized="1"
     inkscape:window-y="-9"
     inkscape:window-x="84"
     inkscape:cy="-87.767404"
     inkscape:cx="74.144324"
     inkscape:zoom="1.5948752"
     fit-margin-bottom="0"
     fit-margin-right="0"
     fit-margin-left="0"
     fit-margin-top="0"
     showgrid="false"
     id="namedview11"
     inkscape:window-height="1051"
     inkscape:window-width="1827"
     inkscape:pageshadow="2"
     inkscape:pageopacity="0"
     guidetolerance="10"
     gridtolerance="10"
     objecttolerance="10"
     borderopacity="1"
     bordercolor="#666666"
     pagecolor="#ffe8e8"
     inkscape:document-rotation="0" />
  <path
     style="stroke-width:4.5;stroke-miterlimit:4;stroke-dasharray:none;fill:#e3f2fd;fill-opacity:1;stroke:#e3f2fd;stroke-opacity:1;opacity:1"
     id="Path_20"
     data-name="Path 20"
     d="m 207.48886,80.041294 2.39427,12.030007 2.92819,-11.492493 16.82214,-57.123698 h 5.90906 l 16.60786,57.118909 2.87312,11.605032 2.55708,-12.137757 13.9993,-56.586184 h 6.70396 l -19.85209,77.50613 h -6.28137 l -17.56676,-60.631313 -1.97408,-7.665256 -1.91541,7.661665 -17.98816,60.634904 h -6.28256 L 186.62159,23.45511 h 6.70396 z m 76.7603,-8.729509 a 33.89329,33.89329 0 0 1 3.2203,-14.96419 24.547256,24.547256 0 0 1 9.09823,-10.354022 24.518525,24.518525 0 0 1 13.33488,-3.699147 23.693699,23.693699 0 0 1 18.63102,8.065099 q 7.13253,8.0651 7.13373,21.372454 v 1.336003 a 34.19018,34.19018 0 0 1 -3.21671,15.038412 24.046854,24.046854 0 0 1 -9.07667,10.295366 24.887243,24.887243 0 0 1 -13.36123,3.62014 23.71405,23.71405 0 0 1 -18.60348,-8.060319 q -7.16007,-8.065099 -7.16007,-21.372453 z m 6.38792,1.756197 q 0,10.326488 5.34999,16.955022 a 17.158538,17.158538 0 0 0 14.02684,6.628537 17.104667,17.104667 0 0 0 13.97296,-6.627337 q 5.35119,-6.628537 5.35119,-17.488947 v -1.223472 a 29.298686,29.298686 0 0 0 -2.44814,-12.083883 19.676113,19.676113 0 0 0 -6.86677,-8.490082 17.54641,17.54641 0 0 0 -10.11459,-3.007204 17.020868,17.020868 0 0 0 -13.89395,6.681212 q -5.37753,6.684802 -5.37753,17.485356 z m 84.79907,-24.27431 a 23.793061,23.793061 0 0 0 -4.30969,-0.372309 15.555574,15.555574 0 0 0 -10.08706,3.326839 18.221594,18.221594 0 0 0 -5.88272,9.662078 v 39.55096 h -6.33524 V 43.364665 h 6.2251 l 0.10655,9.155689 q 5.05909,-10.218745 16.23794,-10.218745 a 10.47613,10.47613 0 0 1 4.20553,0.691944 z m 7.50603,22.837748 q 0,-13.415097 5.98568,-21.372454 a 19.273876,19.273876 0 0 1 16.26547,-7.957357 q 11.65771,0 17.77986,9.20956 V 19.1969 h 6.33524 v 81.76434 h -5.96174 l -0.27294,-7.661679 q -6.12215,8.729519 -17.99295,8.729519 A 19.205639,19.205639 0 0 1 389.038,94.017851 q -6.09462,-8.011232 -6.09462,-21.639419 z m 6.44059,1.118124 q 0,11.013643 4.41863,17.38001 a 14.290202,14.290202 0 0 0 12.45619,6.361577 q 11.76425,0 16.7144,-10.380362 V 59.067486 Q 418.02184,47.835964 406.36294,47.835964 a 14.461393,14.461393 0 0 0 -12.51007,6.307705 q -4.4689,6.308903 -4.4689,18.604678 z m 93.10479,-44.129993 v 14.745114 h 11.92467 v 5.217115 h -11.92467 v 38.428034 q 0,4.796927 1.72986,7.140917 1.72986,2.34399 5.77618,2.34518 a 39.625174,39.625174 0 0 0 5.16324,-0.53272 l 0.26577,5.171629 a 20.821772,20.821772 0 0 1 -6.81409,0.89666 q -6.54714,0 -9.5292,-3.80569 -2.98206,-3.805709 -2.98087,-11.205196 V 48.592554 H 465.505 v -5.217115 h 10.59345 V 28.619551 Z m 20.54763,42.692234 a 33.89329,33.89329 0 0 1 3.22029,-14.96419 24.547256,24.547256 0 0 1 9.09823,-10.354022 24.518525,24.518525 0 0 1 13.33489,-3.699147 23.693699,23.693699 0 0 1 18.63101,8.065099 q 7.13254,8.0651 7.13254,21.372454 v 1.336003 a 34.19018,34.19018 0 0 1 -3.2203,15.038412 24.046854,24.046854 0 0 1 -9.07668,10.295366 24.887243,24.887243 0 0 1 -13.36122,3.62014 23.71405,23.71405 0 0 1 -18.60468,-8.065109 q -7.15408,-8.060309 -7.15408,-21.367663 z m 6.38791,1.756197 q 0,10.326488 5.35,16.955022 a 17.158538,17.158538 0 0 0 14.02564,6.628537 17.104667,17.104667 0 0 0 13.97296,-6.627337 q 5.35,-6.62734 5.35,-17.486553 v -1.225866 a 29.298686,29.298686 0 0 0 -2.44815,-12.083883 19.674916,19.674916 0 0 0 -6.86676,-8.490082 17.54641,17.54641 0 0 0 -10.1146,-3.007204 17.020868,17.020868 0 0 0 -13.89395,6.681212 q -5.37514,6.684802 -5.37514,17.485356 z m 94.16785,27.893258 h -6.54713 V 23.45511 h 6.54713 z m 25.33856,-57.597773 0.21309,9.36878 a 21.31978,21.31978 0 0 1 7.9849,-7.825672 21.897996,21.897996 0 0 1 10.64851,-2.604966 q 13.62699,0 17.301,11.178848 a 21.623852,21.623852 0 0 1 8.25066,-8.27819 22.855704,22.855704 0 0 1 11.39193,-2.900658 q 18.52447,0 18.89798,20.231584 v 38.428047 h -6.38791 V 63.012047 q -0.0527,-7.719128 -3.32684,-11.444612 -3.27417,-3.725485 -10.67366,-3.726682 a 16.964602,16.964602 0 0 0 -11.60503,4.444963 15.70761,15.70761 0 0 0 -5.26739,10.567112 v 38.108412 h -6.38791 V 62.533193 Q 659.91614,55.1337 656.48158,51.487227 653.047,47.840753 645.91447,47.840753 a 16.067948,16.067948 0 0 0 -10.32649,3.433383 20.135813,20.135813 0 0 0 -6.38791,10.193606 v 39.493498 h -6.38792 V 43.364665 Z m 127.17167,57.597773 a 30.123512,30.123512 0 0 1 -1.22467,-8.037579 22.21404,22.21404 0 0 1 -8.54395,6.733899 26.16698,26.16698 0 0 1 -10.9921,2.36913 q -8.30452,0 -13.44143,-4.631719 a 15.083903,15.083903 0 0 1 -5.13691,-11.711579 15.415509,15.415509 0 0 1 6.99965,-13.308551 q 6.99965,-4.89748 19.51331,-4.89748 h 11.55115 v -6.547132 a 12.616607,12.616607 0 0 0 -3.80569,-9.714752 q -3.80569,-3.539929 -11.09864,-3.539929 a 17.370431,17.370431 0 0 0 -11.01364,3.407047 10.122975,10.122975 0 0 0 -4.36476,8.197981 l -6.38791,-0.05267 q 0,-6.866767 6.38791,-11.897129 a 24.597536,24.597536 0 0 1 15.70402,-5.027967 q 9.63454,0 15.20362,4.817272 5.56907,4.817271 5.7223,13.441433 v 27.251589 q 0,8.357187 1.7562,12.510066 v 0.63807 z m -20.0149,-4.577859 a 21.385622,21.385622 0 0 0 11.41827,-3.08382 18.167723,18.167723 0 0 0 7.31929,-8.25065 V 72.376038 h -11.39673 q -9.528,0.106545 -14.90553,3.487255 a 10.465355,10.465355 0 0 0 -5.37633,9.288571 10.295362,10.295362 0 0 0 3.5914,8.037567 13.537204,13.537204 0 0 0 9.34963,3.19395 z M 775.58456,71.63142 q 0,-13.520445 5.98567,-21.428719 a 19.319367,19.319367 0 0 1 16.26189,-7.901092 q 11.76424,0 17.88639,9.368779 l 0.31964,-8.304526 h 5.96173 V 99.79044 q 0,11.12497 -6.2251,17.61943 -6.2251,6.49446 -16.87961,6.49446 a 25.630664,25.630664 0 0 1 -11.47214,-2.68877 22.282277,22.282277 0 0 1 -8.59663,-7.16006 l 3.56626,-3.83084 q 6.76023,8.30453 16.07633,8.30453 7.98489,0 12.45619,-4.71073 4.4713,-4.71072 4.63172,-13.06911 v -7.240289 q -6.12215,8.517629 -17.83731,8.517629 a 19.206836,19.206836 0 0 1 -16.07633,-7.984899 q -6.06828,-7.984893 -6.06828,-21.559208 z m 6.44058,1.118124 q 0,11.013643 4.41863,17.38001 a 14.290202,14.290202 0 0 0 12.45619,6.361577 q 11.76425,0 16.66173,-10.534792 V 59.174031 a 18.16892,18.16892 0 0 0 -6.44059,-8.437408 17.370431,17.370431 0 0 0 -10.11459,-2.900659 14.461393,14.461393 0 0 0 -12.51007,6.307705 q -4.4713,6.308903 -4.4713,18.604678 z m 78.89121,29.278346 a 25.003365,25.003365 0 0 1 -13.28102,-3.62014 24.669364,24.669364 0 0 1 -9.23589,-10.087066 31.449938,31.449938 0 0 1 -3.30051,-14.50569 v -2.290119 a 33.89329,33.89329 0 0 1 3.2203,-14.96419 25.618692,25.618692 0 0 1 8.97013,-10.460567 22.127846,22.127846 0 0 1 12.455,-3.798509 q 10.4869,0 16.64017,7.160065 6.15328,7.160065 6.14969,19.561188 v 3.566266 h -41.10124 v 1.224669 a 24.117485,24.117485 0 0 0 5.61576,16.315757 17.866045,17.866045 0 0 0 14.13337,6.521987 20.755929,20.755929 0 0 0 9.02281,-1.86274 20.011311,20.011311 0 0 0 7.1062,-5.961727 l 3.99244,3.035927 q -7.02958,10.163689 -20.38721,10.163689 z m -1.1708,-54.297274 a 15.921898,15.921898 0 0 0 -12.11022,5.267395 q -4.92381,5.267395 -5.98567,14.159715 h 34.53974 v -0.691944 a 21.137815,21.137815 0 0 0 -4.73826,-13.520445 14.681666,14.681666 0 0 0 -11.70678,-5.215918 z"
     fill="#ffffff"
     stroke="#ffffff"
     stroke-width="3.59141" />
  <g
     style="fill:#e3f2fd;fill-opacity:1"
     transform="translate(-294.12173,-171.77204)"
     id="g853">
    <path
       style="fill:#e3f2fd;fill-opacity:1"
       id="path4"
       d="m 389.86573,231.40904 v 41.888 h -83.776 v -83.776 h 30.04 a 37.7,37.7 0 0 1 2.872,-11.968 h -32.912 a 12,12 0 0 0 -11.968,11.968 v 83.776 a 12,12 0 0 0 11.968,11.968 h 83.776 a 12,12 0 0 0 11.968,-11.968 v -29.92 z m -8.976,29.92 h -65.824 l 16.456,-21.124 11.729,14.123 16.456,-21.184 z"
       fill="#1a73e8" />
    <g
       style="fill:#e3f2fd;fill-opacity:1"
       id="text839"
       transform="translate(345.92473,171.77204)">
      <path
         style="fill:#e3f2fd;fill-opacity:1"
         id="path841"
         d="M 34.22,54.034 19.787,11.679 H 14.443 V 3.134 h 22.793 v 8.545 H 32 l 8.222,24.283 7.707,-24.283 H 43.352 V 3.134 h 18.179 v 8.545 H 56.84 L 65.122,35.962 73.08,11.679 H 68.042 V 3.134 h 20.25 v 8.545 H 82.8 L 68.831,54.034 H 59.377 L 51.418,30.948 43.89,54.034 Z"
         transform="translate(-14.443,-3.134)"
         fill="#1a73e8" />
    </g>
  </g>
</svg>
