<svg xmlns="http://www.w3.org/2000/svg" width="757.426" height="143.616" viewBox="0 0 757.426 143.616">
    <g id="Group_106" data-name="Group 106" transform="translate(-533.384 139)">
        <path id="Path_20" data-name="Path 20" d="M19.516-1.675l2,10.049,2.446-9.6L38.014-48.943H42.95L56.823-1.23l2.4,9.694L61.359-1.675,73.053-48.943h5.6L62.07,15.8H56.823L42.149-34.847,40.5-41.25l-1.6,6.4L23.874,15.8H18.626L2.085-48.943h5.6ZM83.636-8.967a28.312,28.312,0,0,1,2.69-12.5,20.505,20.505,0,0,1,7.6-8.649,20.481,20.481,0,0,1,11.139-3.09,19.792,19.792,0,0,1,15.563,6.737q5.958,6.737,5.959,17.853V-7.5A28.56,28.56,0,0,1,123.9,5.062a20.087,20.087,0,0,1-7.582,8.6,20.789,20.789,0,0,1-11.161,3.024A19.809,19.809,0,0,1,89.617,9.953Q83.636,3.216,83.636-7.9ZM88.972-7.5q0,8.626,4.469,14.163A14.333,14.333,0,0,0,105.158,12.2a14.288,14.288,0,0,0,11.672-5.536Q121.3,1.127,121.3-7.945V-8.967a24.474,24.474,0,0,0-2.045-10.094,16.436,16.436,0,0,0-5.736-7.092,14.657,14.657,0,0,0-8.449-2.512,14.218,14.218,0,0,0-11.606,5.581Q88.972-17.5,88.972-8.478Zm70.835-20.277a19.875,19.875,0,0,0-3.6-.311,12.994,12.994,0,0,0-8.426,2.779,15.221,15.221,0,0,0-4.914,8.071V15.8h-5.292V-32.312h5.2l.089,7.648Q147.09-33.2,156.428-33.2a8.751,8.751,0,0,1,3.513.578ZM166.077-8.7q0-11.206,5-17.853A16.1,16.1,0,0,1,184.664-33.2q9.738,0,14.852,7.693V-52.5h5.292V15.8h-4.98L199.6,9.4q-5.114,7.292-15.03,7.292A16.043,16.043,0,0,1,171.169,10q-5.091-6.692-5.091-18.076Zm5.38.934q0,9.2,3.691,14.518a11.937,11.937,0,0,0,10.405,5.314q9.827,0,13.962-8.671V-19.195q-4.135-9.382-13.874-9.382a12.08,12.08,0,0,0-10.45,5.269Q171.458-18.038,171.458-7.767ZM249.23-44.629v12.317h9.961v4.358H249.23v32.1q0,4.007,1.445,5.965t4.825,1.959a33.1,33.1,0,0,0,4.313-.445l.222,4.32a17.393,17.393,0,0,1-5.692.749q-5.469,0-7.96-3.179t-2.49-9.36v-32.1h-8.849v-4.358h8.849V-44.629ZM266.394-8.967a28.312,28.312,0,0,1,2.69-12.5,20.505,20.505,0,0,1,7.6-8.649,20.481,20.481,0,0,1,11.139-3.09,19.792,19.792,0,0,1,15.563,6.737q5.958,6.737,5.958,17.853V-7.5a28.56,28.56,0,0,1-2.69,12.562,20.087,20.087,0,0,1-7.582,8.6,20.789,20.789,0,0,1-11.161,3.024,19.809,19.809,0,0,1-15.541-6.737Q266.394,3.216,266.394-7.9ZM271.73-7.5q0,8.626,4.469,14.163A14.333,14.333,0,0,0,287.915,12.2a14.288,14.288,0,0,0,11.672-5.536q4.469-5.536,4.469-14.607V-8.967a24.474,24.474,0,0,0-2.045-10.094,16.435,16.435,0,0,0-5.736-7.092,14.657,14.657,0,0,0-8.449-2.512,14.218,14.218,0,0,0-11.606,5.581Q271.73-17.5,271.73-8.478Zm78.661,23.3h-5.469V-48.943h5.469Zm21.166-48.113.178,7.826a17.809,17.809,0,0,1,6.67-6.537A18.292,18.292,0,0,1,387.3-33.2q11.383,0,14.452,9.338a18.063,18.063,0,0,1,6.892-6.915,19.092,19.092,0,0,1,9.516-2.423q15.474,0,15.786,16.9V15.8h-5.336V-15.9q-.044-6.448-2.779-9.56t-8.916-3.113a14.171,14.171,0,0,0-9.694,3.713,13.121,13.121,0,0,0-4.4,8.827V15.8h-5.336V-16.3q-.044-6.181-2.913-9.227t-8.827-3.046a13.422,13.422,0,0,0-8.626,2.868,16.82,16.82,0,0,0-5.336,8.515V15.8h-5.336V-32.312ZM477.787,15.8a25.163,25.163,0,0,1-1.023-6.714,18.556,18.556,0,0,1-7.137,5.625,21.858,21.858,0,0,1-9.182,1.979q-6.937,0-11.228-3.869a12.6,12.6,0,0,1-4.291-9.783,12.877,12.877,0,0,1,5.847-11.117q5.847-4.091,16.3-4.091h9.649v-5.469a10.539,10.539,0,0,0-3.179-8.115q-3.179-2.957-9.271-2.957a14.51,14.51,0,0,0-9.2,2.846,8.456,8.456,0,0,0-3.646,6.848l-5.336-.044q0-5.736,5.336-9.938a20.547,20.547,0,0,1,13.118-4.2q8.048,0,12.7,4.024t4.78,11.228V4.817q0,6.981,1.467,10.45V15.8Zm-16.719-3.824A17.864,17.864,0,0,0,470.606,9.4a15.176,15.176,0,0,0,6.114-6.892V-8.078H467.2q-7.959.089-12.451,2.913a8.742,8.742,0,0,0-4.491,7.759,8.6,8.6,0,0,0,3,6.714A11.308,11.308,0,0,0,461.068,11.976ZM494.062-8.7q0-11.294,5-17.9a16.138,16.138,0,0,1,13.584-6.6q9.827,0,14.941,7.826l.267-6.937h4.98V14.822q0,9.293-5.2,14.718t-14.1,5.425a21.41,21.41,0,0,1-9.583-2.246,18.613,18.613,0,0,1-7.181-5.981l2.979-3.2q5.647,6.937,13.429,6.937,6.67,0,10.405-3.935t3.869-10.917V9.575q-5.114,7.115-14.9,7.115a16.044,16.044,0,0,1-13.429-6.67q-5.069-6.67-5.069-18.009Zm5.38.934q0,9.2,3.691,14.518a11.937,11.937,0,0,0,10.405,5.314q9.827,0,13.918-8.8V-19.106a15.177,15.177,0,0,0-5.38-7.048,14.51,14.51,0,0,0-8.449-2.423,12.08,12.08,0,0,0-10.45,5.269Q499.442-18.038,499.442-7.767Zm65.9,24.457a20.886,20.886,0,0,1-11.094-3.024,20.607,20.607,0,0,1-7.715-8.426,26.271,26.271,0,0,1-2.757-12.117V-8.789a28.312,28.312,0,0,1,2.69-12.5,21.4,21.4,0,0,1,7.493-8.738A18.484,18.484,0,0,1,564.363-33.2q8.76,0,13.9,5.981T583.4-10.879V-7.9H549.067v1.023a20.146,20.146,0,0,0,4.691,13.629A14.924,14.924,0,0,0,565.564,12.2a17.338,17.338,0,0,0,7.537-1.556,16.716,16.716,0,0,0,5.936-4.98L582.372,8.2Q576.5,16.69,565.342,16.69Zm-.978-45.356a13.3,13.3,0,0,0-10.116,4.4q-4.113,4.4-5,11.828H578.1v-.578a17.657,17.657,0,0,0-3.958-11.294A12.264,12.264,0,0,0,564.363-28.666Z" transform="translate(705.915 -46)" fill="#fff" stroke="#fff" stroke-width="3"/>
        <g id="favicon" transform="translate(533.384 -139)">
            <path id="path2" d="M0,0H143.616V143.616H0Z" fill="none"/>
            <path id="path4" d="M97.744,57.856V99.744H13.968V15.968h30.04A37.7,37.7,0,0,1,46.88,4H13.968A12,12,0,0,0,2,15.968V99.744a12,12,0,0,0,11.968,11.968H97.744a12,12,0,0,0,11.968-11.968V69.824Zm-8.976,29.92H22.944L39.4,66.652,51.129,80.775,67.585,59.591Z" transform="translate(9.968 19.936)" fill="#1a73e8"/>
            <g id="text839" transform="translate(63.771 18.155)">
                <path id="path841" d="M34.22,54.034,19.787,11.679H14.443V3.134H37.236v8.545H32l8.222,24.283,7.707-24.283H43.352V3.134H61.531v8.545H56.84l8.282,24.283L73.08,11.679H68.042V3.134h20.25v8.545H82.8L68.831,54.034H59.377L51.418,30.948,43.89,54.034Z" transform="translate(-14.443 -3.134)" fill="#1a73e8"/>
            </g>
        </g>
    </g>
</svg>
