<?xml version="1.0" encoding="UTF-8" standalone="no"?>
<svg
   fill="current"
   width="24px"
   viewBox="0 0 24 24"
   height="24px"
>
  <g
     id="g4">
    <rect
       id="rect2"
       width="24"
       height="24"
       fill="none" />
  </g>
  <g
     id="g6" />
  <path
     d="M 6.5 4.5 C 4.55 4.5 2.45 4.9 1 6 L 1 20.650391 C 1 20.900391 1.25 21.150391 1.5 21.150391 C 1.6 21.150391 1.65 21.099609 1.75 21.099609 C 3.1 20.449609 5.05 20 6.5 20 C 8.45 20 10.55 20.4 12 21.5 C 13.35 20.65 15.8 20 17.5 20 C 19.15 20 20.85 20.300781 22.25 21.050781 C 22.35 21.100781 22.4 21.099609 22.5 21.099609 C 22.75 21.099609 23 20.849609 23 20.599609 L 23 6 C 22.4 5.55 21.75 5.25 21 5 C 19.89 4.65 18.67 4.5 17.5 4.5 C 15.55 4.5 13.45 4.9 12 6 C 10.55 4.9 8.45 4.5 6.5 4.5 z M 17.5 6.5 C 18.7 6.5 19.9 6.65 21 7 L 21 18.5 C 19.9 18.15 18.7 18 17.5 18 C 15.8 18 13.35 18.65 12 19.5 L 12 8 C 13.35 7.15 15.8 6.5 17.5 6.5 z M 5.1914062 6.5742188 C 5.2872062 6.5742188 5.3881298 6.6107861 5.4609375 6.6835938 L 6.1621094 7.3847656 L 4.7246094 8.8222656 L 4.0234375 8.1210938 C 3.8739901 7.9716467 3.8739901 7.7314785 4.0234375 7.5820312 L 4.9199219 6.6835938 C 4.9965619 6.6069537 5.0917747 6.5742188 5.1914062 6.5742188 z M 6.5722656 7.7949219 L 10.808594 12.033203 L 10.808594 13.470703 L 9.3730469 13.470703 L 5.1347656 9.2324219 L 6.5722656 7.7949219 z "
     id="path8" />
  <g
     id="g16">
    <path
       id="path10"
       d="m 17.5,10.5 c 0.88,0 1.73,0.09 2.5,0.26 V 9.24 C 19.21,9.09 18.36,9 17.5,9 15.8,9 14.26,9.29 13,9.83 v 1.66 c 1.13,-0.64 2.7,-0.99 4.5,-0.99 z" />
    <path
       id="path12"
       d="m 13,12.49 v 1.66 c 1.13,-0.64 2.7,-0.99 4.5,-0.99 0.88,0 1.73,0.09 2.5,0.26 V 11.9 c -0.79,-0.15 -1.64,-0.24 -2.5,-0.24 -1.7,0 -3.24,0.3 -4.5,0.83 z" />
    <path
       id="path14"
       d="m 17.5,14.33 c -1.7,0 -3.24,0.29 -4.5,0.83 v 1.66 c 1.13,-0.64 2.7,-0.99 4.5,-0.99 0.88,0 1.73,0.09 2.5,0.26 v -1.52 c -0.79,-0.16 -1.64,-0.24 -2.5,-0.24 z" />
  </g>
  <path
     style="stroke-width:0.383198"
     id="path865"
     fill="none"
     d="M 12,8 H 2.8032379 v 9.196762 H 12 Z" />
</svg>
