<svg
   fill="current"
   width="24px"
   viewBox="0 0 24 24"
   height="24px"
>
  <path
     id="path2"
     fill="none"
     d="M0 0h24v24H0z" />
  <path
     d="M 4 4 C 2.9 4 2.0097656 4.9 2.0097656 6 L 2 18 C 2 19.1 2.9 20 4 20 L 20 20 C 21.1 20 22 19.1 22 18 L 22 8 C 22 6.9 21.1 6 20 6 L 12 6 L 10 4 L 4 4 z M 13.013672 8.4082031 L 15.298828 8.4082031 L 15.298828 9.2636719 L 14.773438 9.2636719 L 15.597656 11.699219 L 16.369141 9.2636719 L 15.912109 9.2636719 L 15.912109 8.4082031 L 17.734375 8.4082031 L 17.734375 9.2636719 L 17.263672 9.2636719 L 18.09375 11.699219 L 18.890625 9.2636719 L 18.386719 9.2636719 L 18.386719 8.4082031 L 20.416016 8.4082031 L 20.416016 9.2636719 L 19.865234 9.2636719 L 18.464844 13.509766 L 17.517578 13.509766 L 16.720703 11.195312 L 15.964844 13.509766 L 14.996094 13.509766 L 13.548828 9.2636719 L 13.013672 9.2636719 L 13.013672 8.4082031 z M 11.144531 13.011719 L 14.457031 17.615234 L 4.1621094 17.615234 L 6.7363281 14.166016 L 8.5703125 16.472656 L 11.144531 13.011719 z "
     id="path4" />
  <path
     fill="none"
     d="m -41.442904,-3.7396297 h 24 V 20.26037 h -24 z"
     id="path2-3" />
</svg>
