<svg
   viewBox="0 0 24 24"
   height="24"
   width="24"
>
  <g
     id="g841">
    <path
       id="path845"
       fill="current"
       d="M 7.6741825,20.972076 C 7.5500998,20.960044 7.3491944,20.919153 7.2277237,20.881196 6.5078703,20.656167 5.9734854,20.202293 5.6372082,19.530286 5.5258723,19.30779 5.3919483,18.873765 5.3918212,18.735038 c -2.94e-5,-0.0402 -0.017511,-0.07973 -0.038739,-0.08785 -0.021326,-0.0079 -0.1759598,0.0039 -0.3437316,0.0271 -0.5179501,0.07122 -0.8994915,0.04275 -1.3114763,-0.09792 C 2.8705684,18.29397 2.2259628,17.603347 2.0067737,16.764556 1.977328,16.651674 1.6798487,14.536263 1.3458312,12.06365 0.75467783,7.6876523 0.73889846,7.5592359 0.75277993,7.2397065 0.76755173,6.8998977 0.82409523,6.6222673 0.93047133,6.3670487 1.2609865,5.5742758 2.0298215,4.9426908 2.8396163,4.7987201 2.9216924,4.7841441 5.8369202,4.374145 9.3179546,3.8876363 16.401739,2.8976164 16.048146,2.937373 16.557429,3.0735861 c 0.312026,0.083445 0.488876,0.1603467 0.736777,0.3203217 0.243079,0.1568642 0.338263,0.2387056 0.528692,0.4545686 0.291414,0.3303099 0.484542,0.7005426 0.590889,1.1326894 0.03992,0.1623816 0.292853,1.8302287 0.292853,1.9313906 0,0.00685 0.460046,0.012032 1.022321,0.012032 0.56837,0 1.113535,0.012326 1.227747,0.027685 1.120159,0.1508087 1.997258,0.9687817 2.239954,2.0889494 0.05243,0.2420902 0.05332,0.3213978 0.05332,4.9182662 0,5.055106 0.0049,4.85197 -0.137173,5.268572 -0.328392,0.960339 -1.197186,1.642706 -2.222628,1.745698 -0.330046,0.03317 -12.8723608,0.0316 -13.215975,-0.0019 z m 0.1486272,-4.43563 c 1.456122,-1.590986 1.502883,-1.637815 1.7574852,-1.760401 0.5164141,-0.248645 1.0846281,-0.191602 1.5448601,0.155074 0.06956,0.05243 0.397986,0.393662 0.729851,0.758367 0.331866,0.364716 0.613399,0.663124 0.625637,0.663124 0.01223,0 0.333529,-0.357495 0.713984,-0.794425 1.908637,-2.19201 2.632168,-3.007958 2.73516,-3.084546 0.254327,-0.189098 0.652588,-0.322043 0.964751,-0.322043 0.318326,0 0.75014,0.150662 0.979053,0.341599 0.07738,0.06456 2.101804,2.367411 3.714801,4.225765 l 0.204015,0.235056 0.0069,-3.812851 c 0.0069,-3.7753743 0.0058,-3.8144461 -0.04686,-3.9736875 -0.128993,-0.3876163 -0.440921,-0.6839219 -0.825388,-0.7840371 -0.139421,-0.036293 -0.864362,-0.040793 -6.632219,-0.040793 -7.1252327,0 -6.6245587,-0.011445 -6.9223609,0.158899 -0.2974305,0.1701685 -0.5336609,0.5179208 -0.587837,0.8653208 -0.032674,0.2094066 -0.037663,8.3476398 -0.00489,8.3106308 0.012032,-0.01369 0.4816371,-0.527213 1.0434817,-1.141082 z M 9.8640202,12.845731 C 9.4562025,12.735862 9.1228991,12.469921 8.9425371,12.110498 8.7233968,11.673754 8.7503969,11.119774 9.0104285,10.718306 9.5087742,9.9488148 10.553391,9.8289488 11.19467,10.467685 c 0.287208,0.286083 0.42122,0.60933 0.42122,1.016061 0,0.638834 -0.439405,1.199192 -1.068946,1.363168 -0.185567,0.04832 -0.501105,0.04783 -0.6828948,-9.78e-4 z m -5.010634,4.386679 c 0.1588794,-0.02113 0.3388501,-0.04578 0.3999327,-0.05488 l 0.1110523,-0.01654 0.00685,-4.048026 0.00685,-4.0480251 0.072392,-0.2306935 C 5.5989777,8.360823 5.756155,8.0887882 6.0739919,7.7551033 6.3971116,7.4158717 6.7742018,7.1850901 7.2484335,7.036326 L 7.4790585,6.963934 12.38632,6.957084 17.29358,6.950234 17.27881,6.865419 C 17.270982,6.8187608 17.220896,6.4674281 17.168334,6.0846638 17.115703,5.7018898 17.049416,5.3187931 17.020998,5.2333224 16.873906,4.791031 16.457197,4.4783201 15.965189,4.441019 15.811114,4.4293777 14.658233,4.5807342 9.4618862,5.2950115 5.6710952,5.8160822 3.0774706,6.1838009 2.9748022,6.2147139 2.4613716,6.3693476 2.0913835,6.9029401 2.1464204,7.4094054 c 0.059282,0.5457425 1.2284515,8.9026366 1.2604992,9.0098926 0.1208348,0.404336 0.4885338,0.746687 0.885972,0.8249 0.1661576,0.03268 0.2399381,0.0312 0.5600056,-0.01125 z"
       style="stroke-width:0.0262621"
    />
  </g>
</svg>
