<?xml version="1.0" encoding="UTF-8" standalone="no"?>
<svg
   width="48px"
   height="48px"
   fill="current"
   viewBox="0 0 24 24"
>
  <path
     id="path2"
     fill="none"
     d="M0 0h24v24H0V0z" />
  <path
     style="fill-opacity:1;stroke-width:0.854125"
     d="M 12.000004,2.0001015 A 10.249497,10.249497 0 0 0 8.7543311,21.986624 c 0.512475,0.08541 0.6833,-0.256238 0.6833,-0.512477 V 19.765898 C 6.6190191,20.363785 6.0211321,18.3993 6.0211321,18.3993 c -0.512475,-1.195775 -1.195775,-1.537425 -1.195775,-1.537425 -0.854125,-0.597887 0.08541,-0.597887 0.08541,-0.597887 1.02495,0 1.622837,1.024949 1.622837,1.024949 0.854125,1.537425 2.391549,1.110363 2.989437,0.854125 0,-0.6833 0.34165,-1.110362 0.5978869,-1.366599 C 7.8147911,16.520225 5.4232421,15.6661 5.4232421,11.651714 c 0,-1.02495 0.427062,-1.9644893 1.110362,-2.6477893 -0.170825,-0.34165 -0.512475,-1.366599 0,-2.733199 0,0 0.854125,-0.256237 2.904024,1.02495 a 9.8224351,9.8224351 0 0 1 5.1247469,0 c 1.964487,-1.281187 2.818612,-1.02495 2.818612,-1.02495 0.512475,1.3666 0.170825,2.391549 0,2.733199 0.768712,0.6833 1.110362,1.6228393 1.110362,2.7332013 0,3.928974 -2.391549,4.783099 -4.697686,5.039337 0.427062,0.341649 0.768712,0.854124 0.768712,1.879074 v 2.81861 c 0,0.256238 0.08541,0.597888 0.6833,0.512475 A 10.249497,10.249497 0 0 0 12.000001,2.0001015"
     id="path2-9" />
</svg>
