<svg
   width="48"
   height="48"
   viewBox="0 0 48 48"
   fill="current"
>
  <path
     d="M 19.2,31.2 31.656,24 19.2,16.8 V 31.2 M 46.944,12.408 c 0.312,1.128 0.528,2.64 0.672,4.56 0.168,1.92 0.24,3.576 0.24,5.016 L 48,24 c 0,5.256 -0.384,9.12 -1.056,11.592 -0.6,2.16 -1.992,3.552 -4.152,4.152 -1.128,0.312 -3.192,0.528 -6.36,0.672 -3.12,0.168 -5.976,0.24 -8.616,0.24 L 24,40.8 C 13.944,40.8 7.68,40.416 5.208,39.744 3.048,39.144 1.656,37.752 1.056,35.592 0.744,34.464 0.528,32.952 0.384,31.032 0.216,29.112 0.144,27.456 0.144,26.016 L 0,24 C 0,18.744 0.384,14.88 1.056,12.408 1.656,10.248 3.048,8.856 5.208,8.256 6.336,7.944 8.4,7.728 11.568,7.584 c 3.12,-0.168 5.976,-0.24 8.616,-0.24 L 24,7.2 c 10.056,0 16.32,0.384 18.792,1.056 2.16,0.6 3.552,1.992 4.152,4.152 z"
     id="path2"
     style="stroke-width:2.4"
  />
</svg>
