<svg
   fill="#000000"
   width="24px"
   viewBox="0 0 24 24"
   height="24px">
  <g
     id="g1466">
    <path
       d="M 0.18537575,0.69189936 H 22.801577 V 23.308101 H 0.18537575 Z"
       fill="none"
       id="path2"
       style="stroke-width:0.942342" />
    <path
       d="M 2.0700592,6.3459497 V 19.538734 c 0,1.036576 0.8481075,1.884683 1.8846834,1.884683 H 17.147527 V 19.538734 H 3.9547426 V 6.3459497 Z"
       id="path4"
       style="stroke-width:0.942342"
       sodipodi:nodetypes="cssccccc" />
    <g
       id="g1444"
       transform="matrix(0.85310608,0,0,0.85310608,-19.190873,22.599848)"
       style="fill:#1a1a1a">
      <path
         fill="#fff"
         id="path4-2"
         d="m 45.412492,-14.402024 v 7.0000002 h -14 V -21.402024 h 5.02 a 6.3,6.3 0 0 1 0.48,-2 h -5.5 a 2.006,2.006 0 0 0 -2,2 v 14.0000002 a 2.006,2.006 0 0 0 2,2 h 14 a 2.006,2.006 0 0 0 2,-2 v -5.0000002 z m -1.5,5.0000002 h -11 l 2.75,-3.5300002 1.96,2.36 2.75,-3.54 z"
         style="fill:#1a1a1a" />
      <g
         id="text839"
         transform="translate(23.626492,-27.502024)"
         style="fill:#1a1a1a">
        <path
           fill="#fff"
           id="path841"
           d="M 17.748,11.64 15.336,4.562 H 14.443 V 3.134 h 3.809 V 4.562 H 17.377 L 18.751,8.62 20.039,4.562 H 19.274 V 3.134 h 3.038 v 1.428 h -0.784 l 1.384,4.058 1.33,-4.058 H 23.4 V 3.134 h 3.384 v 1.428 h -0.917 l -2.335,7.078 h -1.58 l -1.33,-3.858 -1.258,3.858 z"
           style="fill:#1a1a1a" />
      </g>
    </g>
  </g>
</svg>
