<?xml version="1.0" encoding="UTF-8" standalone="no"?>
<svg
   fill="#000000"
   width="24px"
   viewBox="0 0 24 24"
   height="24px"
>
  <path
     id="path2"
     fill="none"
     d="M0 0h24v24H0z" />
  <path
     d="M 2.4003906 2.4003906 C 1.0803906 2.4003906 0.01171875 3.4807813 0.01171875 4.8007812 L 0 19.199219 C 0 20.519219 1.0803906 21.599609 2.4003906 21.599609 L 21.599609 21.599609 C 22.919609 21.599609 24 20.519219 24 19.199219 L 24 7.1992188 C 24 5.8792187 22.919609 4.8007813 21.599609 4.8007812 L 12 4.8007812 L 9.5996094 2.4003906 L 2.4003906 2.4003906 z M 10.638672 6.5800781 L 13.232422 6.5800781 L 13.232422 7.5527344 L 12.636719 7.5527344 L 13.572266 10.316406 L 14.449219 7.5527344 L 13.927734 7.5527344 L 13.927734 6.5800781 L 15.996094 6.5800781 L 15.996094 7.5527344 L 15.462891 7.5527344 L 16.404297 10.316406 L 17.310547 7.5527344 L 16.736328 7.5527344 L 16.736328 6.5800781 L 19.041016 6.5800781 L 19.041016 7.5527344 L 18.416016 7.5527344 L 16.826172 12.371094 L 15.75 12.371094 L 14.845703 9.7441406 L 13.988281 12.371094 L 12.888672 12.371094 L 11.246094 7.5527344 L 10.638672 7.5527344 L 10.638672 6.5800781 z M 6.1054688 7.2382812 L 9.8515625 7.2382812 A 4.2894021 4.2894021 0 0 0 9.5234375 8.5996094 L 6.1054688 8.5996094 L 6.1054688 18.130859 L 15.638672 18.130859 L 15.638672 13.365234 L 17 14.726562 L 17 18.130859 A 1.3658001 1.3658001 0 0 1 15.638672 19.494141 L 6.1054688 19.494141 A 1.3658001 1.3658001 0 0 1 4.7441406 18.130859 L 4.7441406 8.5996094 A 1.3658001 1.3658001 0 0 1 6.1054688 7.2382812 z M 12.207031 13.5625 L 14.617188 16.769531 L 7.1269531 16.769531 L 9 14.367188 L 10.333984 15.972656 L 12.207031 13.5625 z "
     style="stroke-width:1.2"
     id="path4" />
  <path
     id="path2-7"
     d="m 3.544,-4.462 h 24 v 24 h -24 z"
     fill="none" />
</svg>
