<?xml version="1.0" encoding="UTF-8" standalone="no"?>
<svg
   xmlns:dc="http://purl.org/dc/elements/1.1/"
   xmlns:cc="http://creativecommons.org/ns#"
   xmlns:rdf="http://www.w3.org/1999/02/22-rdf-syntax-ns#"
   xmlns:svg="http://www.w3.org/2000/svg"
   xmlns="http://www.w3.org/2000/svg"
   xmlns:sodipodi="http://sodipodi.sourceforge.net/DTD/sodipodi-0.dtd"
   xmlns:inkscape="http://www.inkscape.org/namespaces/inkscape"
   inkscape:version="1.0 (4035a4fb49, 2020-05-01)"
   sodipodi:docname="saved pairs3.svg"
   id="svg6"
   version="1.1"
   fill="#000000"
   width="24px"
   viewBox="0 0 24 24"
   height="24px">
  <metadata
     id="metadata12">
    <rdf:RDF>
      <cc:Work
         rdf:about="">
        <dc:format>image/svg+xml</dc:format>
        <dc:type
           rdf:resource="http://purl.org/dc/dcmitype/StillImage" />
        <dc:title></dc:title>
      </cc:Work>
    </rdf:RDF>
  </metadata>
  <defs
     id="defs10" />
  <sodipodi:namedview
     inkscape:current-layer="svg6"
     inkscape:window-maximized="1"
     inkscape:window-y="-9"
     inkscape:window-x="-9"
     inkscape:cy="0.92121798"
     inkscape:cx="-237.4423"
     inkscape:zoom="1.5283818"
     inkscape:snap-global="false"
     showgrid="false"
     id="namedview8"
     inkscape:window-height="1001"
     inkscape:window-width="1920"
     inkscape:pageshadow="2"
     inkscape:pageopacity="0"
     guidetolerance="10"
     gridtolerance="10"
     objecttolerance="10"
     borderopacity="1"
     bordercolor="#666666"
     pagecolor="#ffffff" />
  <path
     id="path2"
     fill="none"
     d="M0 0h24v24H0z" />
  <path
     d="M 4 4 C 2.9 4 2.0097656 4.9 2.0097656 6 L 2 18 C 2 19.1 2.9 20 4 20 L 20 20 C 21.1 20 22 19.1 22 18 L 22 8 C 22 6.9 21.1 6 20 6 L 12 6 L 10 4 L 4 4 z M 13.013672 8.4082031 L 15.298828 8.4082031 L 15.298828 9.2636719 L 14.773438 9.2636719 L 15.597656 11.699219 L 16.369141 9.2636719 L 15.912109 9.2636719 L 15.912109 8.4082031 L 17.734375 8.4082031 L 17.734375 9.2636719 L 17.263672 9.2636719 L 18.09375 11.699219 L 18.890625 9.2636719 L 18.386719 9.2636719 L 18.386719 8.4082031 L 20.416016 8.4082031 L 20.416016 9.2636719 L 19.865234 9.2636719 L 18.464844 13.509766 L 17.517578 13.509766 L 16.720703 11.195312 L 15.964844 13.509766 L 14.996094 13.509766 L 13.548828 9.2636719 L 13.013672 9.2636719 L 13.013672 8.4082031 z M 11.144531 13.011719 L 14.457031 17.615234 L 4.1621094 17.615234 L 6.7363281 14.166016 L 8.5703125 16.472656 L 11.144531 13.011719 z "
     id="path4" />
  <path
     fill="none"
     d="m -41.442904,-3.7396297 h 24 V 20.26037 h -24 z"
     id="path2-3" />
</svg>
