<?xml version="1.0" encoding="UTF-8" standalone="no"?>
<svg
   xmlns:dc="http://purl.org/dc/elements/1.1/"
   xmlns:cc="http://creativecommons.org/ns#"
   xmlns:rdf="http://www.w3.org/1999/02/22-rdf-syntax-ns#"
   xmlns:svg="http://www.w3.org/2000/svg"
   xmlns="http://www.w3.org/2000/svg"
   xmlns:sodipodi="http://sodipodi.sourceforge.net/DTD/sodipodi-0.dtd"
   xmlns:inkscape="http://www.inkscape.org/namespaces/inkscape"
   inkscape:version="1.0 (4035a4fb49, 2020-05-01)"
   sodipodi:docname="title.svg"
   id="svg9"
   version="1.1"
   viewBox="0 0 745.46298 113.493"
   height="113.493"
   width="745.46301">
  <metadata
     id="metadata15">
    <rdf:RDF>
      <cc:Work
         rdf:about="">
        <dc:format>image/svg+xml</dc:format>
        <dc:type
           rdf:resource="http://purl.org/dc/dcmitype/StillImage" />
        <dc:title></dc:title>
      </cc:Work>
    </rdf:RDF>
  </metadata>
  <defs
     id="defs13" />
  <sodipodi:namedview
     inkscape:current-layer="svg9"
     inkscape:window-maximized="1"
     inkscape:window-y="-9"
     inkscape:window-x="85"
     inkscape:cy="121.4659"
     inkscape:cx="-28.551779"
     inkscape:zoom="0.79743761"
     fit-margin-bottom="0"
     fit-margin-right="0"
     fit-margin-left="0"
     fit-margin-top="0"
     inkscape:pagecheckerboard="true"
     showgrid="false"
     id="namedview11"
     inkscape:window-height="1051"
     inkscape:window-width="1826"
     inkscape:pageshadow="2"
     inkscape:pageopacity="0"
     guidetolerance="10"
     gridtolerance="10"
     objecttolerance="10"
     borderopacity="1"
     bordercolor="#666666"
     pagecolor="#f12c2c" />
  <g
     transform="translate(-24.50817,-67.06165)"
     id="g876">
    <path
       stroke-width="3"
       stroke="#ffffff"
       fill="#ffffff"
       d="m 204.58717,140.23165 2,10.049 2.446,-9.6 14.052,-47.717 h 4.936 l 13.873,47.713 2.4,9.694 2.136,-10.139 11.694,-47.268 h 5.6 l -16.583,64.743 h -5.247 l -14.674,-50.647 -1.649,-6.403 -1.6,6.4 -15.026,50.65 h -5.248 l -16.541,-64.743 h 5.6 z m 64.12,-7.292 a 28.312,28.312 0 0 1 2.69,-12.5 20.505,20.505 0 0 1 7.6,-8.649 20.481,20.481 0 0 1 11.139,-3.09 19.792,19.792 0 0 1 15.563,6.737 q 5.958,6.737 5.959,17.853 v 1.116 a 28.56,28.56 0 0 1 -2.687,12.562 20.087,20.087 0 0 1 -7.582,8.6 20.789,20.789 0 0 1 -11.161,3.024 19.809,19.809 0 0 1 -15.54,-6.733 q -5.981,-6.737 -5.981,-17.853 z m 5.336,1.467 q 0,8.626 4.469,14.163 a 14.333,14.333 0 0 0 11.717,5.537 14.288,14.288 0 0 0 11.672,-5.536 q 4.47,-5.537 4.47,-14.609 v -1.022 a 24.474,24.474 0 0 0 -2.045,-10.094 16.436,16.436 0 0 0 -5.736,-7.092 14.657,14.657 0 0 0 -8.449,-2.512 14.218,14.218 0 0 0 -11.606,5.581 q -4.492,5.584 -4.492,14.606 z m 70.835,-20.277 a 19.875,19.875 0 0 0 -3.6,-0.311 12.994,12.994 0 0 0 -8.426,2.779 15.221,15.221 0 0 0 -4.914,8.071 v 33.038 h -5.292 v -48.112 h 5.2 l 0.089,7.648 q 4.226,-8.536 13.564,-8.536 a 8.751,8.751 0 0 1 3.513,0.578 z m 6.27,19.077 q 0,-11.206 5,-17.853 a 16.1,16.1 0 0 1 13.587,-6.647 q 9.738,0 14.852,7.693 v -26.993 h 5.292 v 68.3 h -4.98 l -0.228,-6.4 q -5.114,7.292 -15.03,7.292 a 16.043,16.043 0 0 1 -13.401,-6.692 q -5.091,-6.692 -5.091,-18.076 z m 5.38,0.934 q 0,9.2 3.691,14.518 a 11.937,11.937 0 0 0 10.405,5.314 q 9.827,0 13.962,-8.671 v -22.59 q -4.135,-9.382 -13.874,-9.382 a 12.08,12.08 0 0 0 -10.45,5.269 q -3.733,5.27 -3.733,15.541 z m 77.773,-36.863 v 12.317 h 9.961 v 4.358 h -9.961 v 32.1 q 0,4.007 1.445,5.965 1.445,1.958 4.825,1.959 a 33.1,33.1 0 0 0 4.313,-0.445 l 0.222,4.32 a 17.393,17.393 0 0 1 -5.692,0.749 q -5.469,0 -7.96,-3.179 -2.491,-3.179 -2.49,-9.36 v -32.1 h -8.849 v -4.358 h 8.849 v -12.326 z m 17.164,35.662 a 28.312,28.312 0 0 1 2.69,-12.5 20.505,20.505 0 0 1 7.6,-8.649 20.481,20.481 0 0 1 11.139,-3.09 19.792,19.792 0 0 1 15.563,6.737 q 5.958,6.737 5.958,17.853 v 1.116 a 28.56,28.56 0 0 1 -2.69,12.562 20.087,20.087 0 0 1 -7.582,8.6 20.789,20.789 0 0 1 -11.161,3.024 19.809,19.809 0 0 1 -15.541,-6.737 q -5.976,-6.733 -5.976,-17.849 z m 5.336,1.467 q 0,8.626 4.469,14.163 a 14.333,14.333 0 0 0 11.716,5.537 14.288,14.288 0 0 0 11.672,-5.536 q 4.469,-5.536 4.469,-14.607 v -1.024 a 24.474,24.474 0 0 0 -2.045,-10.094 16.435,16.435 0 0 0 -5.736,-7.092 14.657,14.657 0 0 0 -8.449,-2.512 14.218,14.218 0 0 0 -11.606,5.581 q -4.49,5.584 -4.49,14.606 z m 78.661,23.3 h -5.469 v -64.743 h 5.469 z m 21.166,-48.113 0.178,7.826 a 17.809,17.809 0 0 1 6.67,-6.537 18.292,18.292 0 0 1 8.895,-2.176 q 11.383,0 14.452,9.338 a 18.063,18.063 0 0 1 6.892,-6.915 19.092,19.092 0 0 1 9.516,-2.423 q 15.474,0 15.786,16.9 v 32.1 h -5.336 v -31.7 q -0.044,-6.448 -2.779,-9.56 -2.735,-3.112 -8.916,-3.113 a 14.171,14.171 0 0 0 -9.694,3.713 13.121,13.121 0 0 0 -4.4,8.827 v 31.833 h -5.336 v -32.1 q -0.044,-6.181 -2.913,-9.227 -2.869,-3.046 -8.827,-3.046 a 13.422,13.422 0 0 0 -8.626,2.868 16.82,16.82 0 0 0 -5.336,8.515 v 32.99 h -5.336 v -48.112 z m 106.23,48.113 a 25.163,25.163 0 0 1 -1.023,-6.714 18.556,18.556 0 0 1 -7.137,5.625 21.858,21.858 0 0 1 -9.182,1.979 q -6.937,0 -11.228,-3.869 a 12.6,12.6 0 0 1 -4.291,-9.783 12.877,12.877 0 0 1 5.847,-11.117 q 5.847,-4.091 16.3,-4.091 h 9.649 v -5.469 a 10.539,10.539 0 0 0 -3.179,-8.115 q -3.179,-2.957 -9.271,-2.957 a 14.51,14.51 0 0 0 -9.2,2.846 8.456,8.456 0 0 0 -3.646,6.848 l -5.336,-0.044 q 0,-5.736 5.336,-9.938 a 20.547,20.547 0 0 1 13.118,-4.2 q 8.048,0 12.7,4.024 4.652,4.024 4.78,11.228 v 22.764 q 0,6.981 1.467,10.45 v 0.533 z m -16.719,-3.824 a 17.864,17.864 0 0 0 9.538,-2.576 15.176,15.176 0 0 0 6.114,-6.892 v -10.586 h -9.52 q -7.959,0.089 -12.451,2.913 a 8.742,8.742 0 0 0 -4.491,7.759 8.6,8.6 0 0 0 3,6.714 11.308,11.308 0 0 0 7.81,2.668 z m 32.994,-20.676 q 0,-11.294 5,-17.9 a 16.138,16.138 0 0 1 13.584,-6.6 q 9.827,0 14.941,7.826 l 0.267,-6.937 h 4.98 v 47.133 q 0,9.293 -5.2,14.718 -5.2,5.425 -14.1,5.425 a 21.41,21.41 0 0 1 -9.583,-2.246 18.613,18.613 0 0 1 -7.181,-5.981 l 2.979,-3.2 q 5.647,6.937 13.429,6.937 6.67,0 10.405,-3.935 3.735,-3.935 3.869,-10.917 v -6.048 q -5.114,7.115 -14.9,7.115 a 16.044,16.044 0 0 1 -13.429,-6.67 q -5.069,-6.67 -5.069,-18.009 z m 5.38,0.934 q 0,9.2 3.691,14.518 a 11.937,11.937 0 0 0 10.405,5.314 q 9.827,0 13.918,-8.8 v -22.372 a 15.177,15.177 0 0 0 -5.38,-7.048 14.51,14.51 0 0 0 -8.449,-2.423 12.08,12.08 0 0 0 -10.45,5.269 q -3.735,5.27 -3.735,15.541 z m 65.9,24.457 a 20.886,20.886 0 0 1 -11.094,-3.024 20.607,20.607 0 0 1 -7.715,-8.426 26.271,26.271 0 0 1 -2.757,-12.117 v -1.913 a 28.312,28.312 0 0 1 2.69,-12.5 21.4,21.4 0 0 1 7.493,-8.738 18.484,18.484 0 0 1 10.404,-3.173 q 8.76,0 13.9,5.981 5.14,5.981 5.137,16.34 v 2.979 h -34.333 v 1.023 a 20.146,20.146 0 0 0 4.691,13.629 14.924,14.924 0 0 0 11.806,5.448 17.338,17.338 0 0 0 7.537,-1.556 16.716,16.716 0 0 0 5.936,-4.98 l 3.335,2.536 q -5.872,8.49 -17.03,8.49 z m -0.978,-45.356 a 13.3,13.3 0 0 0 -10.116,4.4 q -4.113,4.4 -5,11.828 h 28.852 v -0.578 a 17.657,17.657 0 0 0 -3.958,-11.294 12.264,12.264 0 0 0 -9.779,-4.357 z"
       data-name="Path 20"
       id="Path_20" />
    <g
       id="g870">
      <path
         id="path4"
         d="m 120.25217,126.69865 v 41.888 h -83.776 v -83.776 h 30.04 a 37.7,37.7 0 0 1 2.872,-11.968 h -32.912 a 12,12 0 0 0 -11.968,11.968 v 83.776 a 12,12 0 0 0 11.968,11.968 h 83.776 a 12,12 0 0 0 11.968,-11.968 v -29.92 z m -8.976,29.92 h -65.824 l 16.456,-21.124 11.729,14.123 16.456,-21.184 z"
         fill="#1a73e8" />
      <path
         id="path841"
         d="m 96.08817,117.96165 -14.433,-42.355 h -5.344 v -8.545 h 22.793 v 8.545 h -5.236 l 8.222,24.283 7.707,-24.283 h -4.577 v -8.545 h 18.179 v 8.545 h -4.691 l 8.282,24.283 7.958,-24.283 h -5.038 v -8.545 h 20.25 v 8.545 h -5.492 l -13.969,42.355 h -9.454 l -7.959,-23.086 -7.528,23.086 z"
         fill="#1a73e8" />
    </g>
  </g>
</svg>
